<mxfile host="app.diagrams.net" agent="Mozilla/5.0 (Windows NT 10.0; Win64; x64) AppleWebKit/537.36 (KHTML, like Gecko) Chrome/128.0.0.0 YaBrowser/24.10.0.0 Safari/537.36" version="25.0.1">
  <diagram name="Страница — 1" id="PpuLnX6Uw0xLYLr0Zi17">
    <mxGraphModel dx="2501" dy="791" grid="1" gridSize="10" guides="1" tooltips="1" connect="1" arrows="1" fold="1" page="1" pageScale="1" pageWidth="827" pageHeight="1169" math="0" shadow="0">
      <root>
        <mxCell id="0" />
        <mxCell id="1" parent="0" />
        <mxCell id="f279X57gYz4VAbSITshd-2" value="Пользователи_роль" style="rounded=0;whiteSpace=wrap;html=1;" parent="1" vertex="1">
          <mxGeometry x="330" y="200" width="120" height="60" as="geometry" />
        </mxCell>
        <mxCell id="f279X57gYz4VAbSITshd-4" value="Инвентарь" style="rounded=0;whiteSpace=wrap;html=1;" parent="1" vertex="1">
          <mxGeometry x="90" y="310" width="120" height="60" as="geometry" />
        </mxCell>
        <mxCell id="f279X57gYz4VAbSITshd-5" value="Категории инвентаря" style="rounded=0;whiteSpace=wrap;html=1;" parent="1" vertex="1">
          <mxGeometry x="-170" y="360" width="120" height="60" as="geometry" />
        </mxCell>
        <mxCell id="f279X57gYz4VAbSITshd-6" value="Бронирования" style="rounded=0;whiteSpace=wrap;html=1;" parent="1" vertex="1">
          <mxGeometry x="140" y="530" width="120" height="60" as="geometry" />
        </mxCell>
        <mxCell id="f279X57gYz4VAbSITshd-7" value="Отзывы" style="rounded=0;whiteSpace=wrap;html=1;" parent="1" vertex="1">
          <mxGeometry x="-170" y="210" width="120" height="60" as="geometry" />
        </mxCell>
        <mxCell id="f279X57gYz4VAbSITshd-8" value="Платежи" style="rounded=0;whiteSpace=wrap;html=1;" parent="1" vertex="1">
          <mxGeometry x="140" y="700" width="120" height="60" as="geometry" />
        </mxCell>
        <mxCell id="f279X57gYz4VAbSITshd-10" value="Уведомления" style="rounded=0;whiteSpace=wrap;html=1;" parent="1" vertex="1">
          <mxGeometry x="-70" y="110" width="120" height="60" as="geometry" />
        </mxCell>
        <mxCell id="f279X57gYz4VAbSITshd-12" value="Роль_разрешение" style="rounded=0;whiteSpace=wrap;html=1;" parent="1" vertex="1">
          <mxGeometry x="560" y="80" width="180" height="60" as="geometry" />
        </mxCell>
        <mxCell id="f279X57gYz4VAbSITshd-13" value="Разрешения" style="rounded=0;whiteSpace=wrap;html=1;" parent="1" vertex="1">
          <mxGeometry x="310" y="80" width="120" height="60" as="geometry" />
        </mxCell>
        <mxCell id="f279X57gYz4VAbSITshd-14" value="Роли" style="rounded=0;whiteSpace=wrap;html=1;" parent="1" vertex="1">
          <mxGeometry x="590" y="200" width="120" height="60" as="geometry" />
        </mxCell>
        <mxCell id="f279X57gYz4VAbSITshd-21" style="edgeStyle=orthogonalEdgeStyle;rounded=0;orthogonalLoop=1;jettySize=auto;html=1;endArrow=none;endFill=0;" parent="1" source="f279X57gYz4VAbSITshd-15" target="f279X57gYz4VAbSITshd-4" edge="1">
          <mxGeometry relative="1" as="geometry" />
        </mxCell>
        <mxCell id="f279X57gYz4VAbSITshd-15" value="Пользователи" style="rounded=0;whiteSpace=wrap;html=1;" parent="1" vertex="1">
          <mxGeometry x="90" y="200" width="120" height="60" as="geometry" />
        </mxCell>
        <mxCell id="f279X57gYz4VAbSITshd-34" value="Статусы" style="rounded=0;whiteSpace=wrap;html=1;" parent="1" vertex="1">
          <mxGeometry x="620" y="310" width="120" height="60" as="geometry" />
        </mxCell>
        <mxCell id="f279X57gYz4VAbSITshd-37" value="Экземпляры инвентаря" style="rounded=0;whiteSpace=wrap;html=1;" parent="1" vertex="1">
          <mxGeometry x="310" y="310" width="120" height="60" as="geometry" />
        </mxCell>
        <mxCell id="f279X57gYz4VAbSITshd-44" value="Тип уведомления" style="rounded=0;whiteSpace=wrap;html=1;" parent="1" vertex="1">
          <mxGeometry x="-10" y="10" width="120" height="60" as="geometry" />
        </mxCell>
        <mxCell id="f279X57gYz4VAbSITshd-53" value="" style="edgeStyle=entityRelationEdgeStyle;fontSize=12;html=1;endArrow=ERoneToMany;rounded=0;entryX=0;entryY=0.5;entryDx=0;entryDy=0;exitX=1;exitY=0.5;exitDx=0;exitDy=0;" parent="1" source="f279X57gYz4VAbSITshd-13" target="f279X57gYz4VAbSITshd-12" edge="1">
          <mxGeometry width="100" height="100" relative="1" as="geometry">
            <mxPoint x="390" y="120" as="sourcePoint" />
            <mxPoint x="490" y="20" as="targetPoint" />
          </mxGeometry>
        </mxCell>
        <mxCell id="f279X57gYz4VAbSITshd-90" value="Предоставляет" style="edgeLabel;html=1;align=center;verticalAlign=middle;resizable=0;points=[];" parent="f279X57gYz4VAbSITshd-53" vertex="1" connectable="0">
          <mxGeometry x="-0.1231" relative="1" as="geometry">
            <mxPoint as="offset" />
          </mxGeometry>
        </mxCell>
        <mxCell id="f279X57gYz4VAbSITshd-56" value="" style="edgeStyle=orthogonalEdgeStyle;fontSize=12;html=1;endArrow=ERoneToMany;rounded=0;entryX=1;entryY=0.5;entryDx=0;entryDy=0;exitX=1;exitY=0.5;exitDx=0;exitDy=0;" parent="1" source="f279X57gYz4VAbSITshd-14" target="f279X57gYz4VAbSITshd-12" edge="1">
          <mxGeometry width="100" height="100" relative="1" as="geometry">
            <mxPoint x="960" y="220" as="sourcePoint" />
            <mxPoint x="510" y="150" as="targetPoint" />
            <Array as="points">
              <mxPoint x="760" y="230" />
              <mxPoint x="760" y="110" />
            </Array>
          </mxGeometry>
        </mxCell>
        <mxCell id="f279X57gYz4VAbSITshd-88" value="Предоставляет" style="edgeLabel;html=1;align=center;verticalAlign=middle;resizable=0;points=[];" parent="f279X57gYz4VAbSITshd-56" vertex="1" connectable="0">
          <mxGeometry x="0.0526" y="-1" relative="1" as="geometry">
            <mxPoint as="offset" />
          </mxGeometry>
        </mxCell>
        <mxCell id="f279X57gYz4VAbSITshd-57" value="" style="edgeStyle=entityRelationEdgeStyle;fontSize=12;html=1;endArrow=ERoneToMany;rounded=0;exitX=0;exitY=0.5;exitDx=0;exitDy=0;entryX=1;entryY=0.5;entryDx=0;entryDy=0;" parent="1" source="f279X57gYz4VAbSITshd-14" target="f279X57gYz4VAbSITshd-2" edge="1">
          <mxGeometry width="100" height="100" relative="1" as="geometry">
            <mxPoint x="770" y="340" as="sourcePoint" />
            <mxPoint x="870" y="240" as="targetPoint" />
          </mxGeometry>
        </mxCell>
        <mxCell id="f279X57gYz4VAbSITshd-89" value="Соответсвует" style="edgeLabel;html=1;align=center;verticalAlign=middle;resizable=0;points=[];" parent="f279X57gYz4VAbSITshd-57" vertex="1" connectable="0">
          <mxGeometry x="-0.0222" y="3" relative="1" as="geometry">
            <mxPoint as="offset" />
          </mxGeometry>
        </mxCell>
        <mxCell id="f279X57gYz4VAbSITshd-59" value="" style="edgeStyle=entityRelationEdgeStyle;fontSize=12;html=1;endArrow=ERoneToMany;rounded=0;exitX=1;exitY=0.5;exitDx=0;exitDy=0;entryX=0;entryY=0.5;entryDx=0;entryDy=0;" parent="1" source="f279X57gYz4VAbSITshd-15" target="f279X57gYz4VAbSITshd-2" edge="1">
          <mxGeometry width="100" height="100" relative="1" as="geometry">
            <mxPoint x="280" y="280" as="sourcePoint" />
            <mxPoint x="380" y="180" as="targetPoint" />
          </mxGeometry>
        </mxCell>
        <mxCell id="f279X57gYz4VAbSITshd-87" value="Соответствует" style="edgeLabel;html=1;align=center;verticalAlign=middle;resizable=0;points=[];" parent="f279X57gYz4VAbSITshd-59" vertex="1" connectable="0">
          <mxGeometry x="-0.075" y="-1" relative="1" as="geometry">
            <mxPoint as="offset" />
          </mxGeometry>
        </mxCell>
        <mxCell id="f279X57gYz4VAbSITshd-60" value="" style="edgeStyle=entityRelationEdgeStyle;fontSize=12;html=1;endArrow=ERoneToMany;rounded=0;exitX=0.5;exitY=0;exitDx=0;exitDy=0;entryX=1;entryY=0.5;entryDx=0;entryDy=0;" parent="1" source="f279X57gYz4VAbSITshd-15" target="f279X57gYz4VAbSITshd-10" edge="1">
          <mxGeometry width="100" height="100" relative="1" as="geometry">
            <mxPoint x="290" y="290" as="sourcePoint" />
            <mxPoint x="390" y="190" as="targetPoint" />
          </mxGeometry>
        </mxCell>
        <mxCell id="f279X57gYz4VAbSITshd-83" value="Отправляется" style="edgeLabel;html=1;align=center;verticalAlign=middle;resizable=0;points=[];" parent="f279X57gYz4VAbSITshd-60" vertex="1" connectable="0">
          <mxGeometry x="0.165" relative="1" as="geometry">
            <mxPoint y="-1" as="offset" />
          </mxGeometry>
        </mxCell>
        <mxCell id="f279X57gYz4VAbSITshd-62" value="" style="edgeStyle=entityRelationEdgeStyle;fontSize=12;html=1;endArrow=ERoneToMany;rounded=0;entryX=0;entryY=0.5;entryDx=0;entryDy=0;exitX=0;exitY=0;exitDx=0;exitDy=0;" parent="1" source="f279X57gYz4VAbSITshd-10" target="f279X57gYz4VAbSITshd-44" edge="1">
          <mxGeometry width="100" height="100" relative="1" as="geometry">
            <mxPoint x="-250" y="150" as="sourcePoint" />
            <mxPoint x="-70" y="50" as="targetPoint" />
            <Array as="points">
              <mxPoint x="-290" y="100" />
              <mxPoint x="-30" y="140" />
            </Array>
          </mxGeometry>
        </mxCell>
        <mxCell id="f279X57gYz4VAbSITshd-81" value="Связано" style="edgeLabel;html=1;align=center;verticalAlign=middle;resizable=0;points=[];" parent="f279X57gYz4VAbSITshd-62" vertex="1" connectable="0">
          <mxGeometry x="0.1231" y="1" relative="1" as="geometry">
            <mxPoint as="offset" />
          </mxGeometry>
        </mxCell>
        <mxCell id="f279X57gYz4VAbSITshd-63" value="" style="edgeStyle=entityRelationEdgeStyle;fontSize=12;html=1;endArrow=ERoneToMany;rounded=0;exitX=0;exitY=0.5;exitDx=0;exitDy=0;entryX=1;entryY=0.367;entryDx=0;entryDy=0;entryPerimeter=0;" parent="1" source="f279X57gYz4VAbSITshd-15" target="f279X57gYz4VAbSITshd-7" edge="1">
          <mxGeometry width="100" height="100" relative="1" as="geometry">
            <mxPoint x="320" y="320" as="sourcePoint" />
            <mxPoint x="420" y="220" as="targetPoint" />
          </mxGeometry>
        </mxCell>
        <mxCell id="f279X57gYz4VAbSITshd-84" value="Пишет" style="edgeLabel;html=1;align=center;verticalAlign=middle;resizable=0;points=[];" parent="f279X57gYz4VAbSITshd-63" vertex="1" connectable="0">
          <mxGeometry x="-0.047" relative="1" as="geometry">
            <mxPoint as="offset" />
          </mxGeometry>
        </mxCell>
        <mxCell id="f279X57gYz4VAbSITshd-65" value="" style="edgeStyle=orthogonalEdgeStyle;fontSize=12;html=1;endArrow=ERoneToMany;rounded=0;exitX=0;exitY=0.25;exitDx=0;exitDy=0;entryX=1;entryY=0.75;entryDx=0;entryDy=0;" parent="1" source="f279X57gYz4VAbSITshd-4" target="f279X57gYz4VAbSITshd-7" edge="1">
          <mxGeometry width="100" height="100" relative="1" as="geometry">
            <mxPoint x="340" y="340" as="sourcePoint" />
            <mxPoint x="440" y="240" as="targetPoint" />
          </mxGeometry>
        </mxCell>
        <mxCell id="f279X57gYz4VAbSITshd-85" value="Оставляет на" style="edgeLabel;html=1;align=center;verticalAlign=middle;resizable=0;points=[];" parent="f279X57gYz4VAbSITshd-65" vertex="1" connectable="0">
          <mxGeometry x="0.0615" y="4" relative="1" as="geometry">
            <mxPoint as="offset" />
          </mxGeometry>
        </mxCell>
        <mxCell id="f279X57gYz4VAbSITshd-66" value="" style="edgeStyle=orthogonalEdgeStyle;fontSize=12;html=1;endArrow=ERoneToMany;rounded=0;exitX=1;exitY=0.5;exitDx=0;exitDy=0;entryX=0;entryY=0.75;entryDx=0;entryDy=0;" parent="1" source="f279X57gYz4VAbSITshd-5" target="f279X57gYz4VAbSITshd-4" edge="1">
          <mxGeometry width="100" height="100" relative="1" as="geometry">
            <mxPoint x="350" y="350" as="sourcePoint" />
            <mxPoint x="-40" y="440" as="targetPoint" />
          </mxGeometry>
        </mxCell>
        <mxCell id="f279X57gYz4VAbSITshd-86" value="Связано" style="edgeLabel;html=1;align=center;verticalAlign=middle;resizable=0;points=[];" parent="f279X57gYz4VAbSITshd-66" vertex="1" connectable="0">
          <mxGeometry x="-0.4044" y="2" relative="1" as="geometry">
            <mxPoint as="offset" />
          </mxGeometry>
        </mxCell>
        <mxCell id="f279X57gYz4VAbSITshd-67" value="" style="edgeStyle=entityRelationEdgeStyle;fontSize=12;html=1;endArrow=ERoneToMany;rounded=0;exitX=1;exitY=0.5;exitDx=0;exitDy=0;entryX=0;entryY=0.5;entryDx=0;entryDy=0;" parent="1" source="f279X57gYz4VAbSITshd-4" target="f279X57gYz4VAbSITshd-37" edge="1">
          <mxGeometry width="100" height="100" relative="1" as="geometry">
            <mxPoint x="360" y="360" as="sourcePoint" />
            <mxPoint x="460" y="260" as="targetPoint" />
          </mxGeometry>
        </mxCell>
        <mxCell id="f279X57gYz4VAbSITshd-91" value="Связано" style="edgeLabel;html=1;align=center;verticalAlign=middle;resizable=0;points=[];" parent="f279X57gYz4VAbSITshd-67" vertex="1" connectable="0">
          <mxGeometry x="-0.28" y="-4" relative="1" as="geometry">
            <mxPoint as="offset" />
          </mxGeometry>
        </mxCell>
        <mxCell id="f279X57gYz4VAbSITshd-68" value="" style="edgeStyle=entityRelationEdgeStyle;fontSize=12;html=1;endArrow=ERoneToMany;rounded=0;exitX=0;exitY=0.5;exitDx=0;exitDy=0;entryX=1;entryY=0.5;entryDx=0;entryDy=0;" parent="1" source="f279X57gYz4VAbSITshd-34" target="f279X57gYz4VAbSITshd-37" edge="1">
          <mxGeometry width="100" height="100" relative="1" as="geometry">
            <mxPoint x="370" y="370" as="sourcePoint" />
            <mxPoint x="470" y="270" as="targetPoint" />
          </mxGeometry>
        </mxCell>
        <mxCell id="f279X57gYz4VAbSITshd-92" value="Имеет" style="edgeLabel;html=1;align=center;verticalAlign=middle;resizable=0;points=[];" parent="f279X57gYz4VAbSITshd-68" vertex="1" connectable="0">
          <mxGeometry x="0.0737" y="2" relative="1" as="geometry">
            <mxPoint as="offset" />
          </mxGeometry>
        </mxCell>
        <mxCell id="f279X57gYz4VAbSITshd-70" value="Бронирование инвентарь&lt;div&gt;экземпляр&lt;/div&gt;" style="rounded=0;whiteSpace=wrap;html=1;" parent="1" vertex="1">
          <mxGeometry x="320" y="430" width="120" height="60" as="geometry" />
        </mxCell>
        <mxCell id="f279X57gYz4VAbSITshd-71" value="" style="edgeStyle=orthogonalEdgeStyle;fontSize=12;html=1;endArrow=ERoneToMany;rounded=0;exitX=1;exitY=1;exitDx=0;exitDy=0;entryX=1;entryY=0.5;entryDx=0;entryDy=0;" parent="1" source="f279X57gYz4VAbSITshd-37" target="f279X57gYz4VAbSITshd-70" edge="1">
          <mxGeometry width="100" height="100" relative="1" as="geometry">
            <mxPoint x="390" y="390" as="sourcePoint" />
            <mxPoint x="460" y="450" as="targetPoint" />
            <Array as="points">
              <mxPoint x="430" y="360" />
              <mxPoint x="460" y="360" />
              <mxPoint x="460" y="460" />
            </Array>
          </mxGeometry>
        </mxCell>
        <mxCell id="f279X57gYz4VAbSITshd-93" value="Предоставляется" style="edgeLabel;html=1;align=center;verticalAlign=middle;resizable=0;points=[];" parent="f279X57gYz4VAbSITshd-71" vertex="1" connectable="0">
          <mxGeometry x="-0.15" y="3" relative="1" as="geometry">
            <mxPoint as="offset" />
          </mxGeometry>
        </mxCell>
        <mxCell id="f279X57gYz4VAbSITshd-72" value="" style="edgeStyle=orthogonalEdgeStyle;fontSize=12;html=1;endArrow=ERoneToMany;rounded=0;exitX=0;exitY=0.5;exitDx=0;exitDy=0;entryX=1;entryY=0.25;entryDx=0;entryDy=0;" parent="1" source="f279X57gYz4VAbSITshd-70" target="f279X57gYz4VAbSITshd-6" edge="1">
          <mxGeometry width="100" height="100" relative="1" as="geometry">
            <mxPoint x="400" y="400" as="sourcePoint" />
            <mxPoint x="500" y="300" as="targetPoint" />
          </mxGeometry>
        </mxCell>
        <mxCell id="f279X57gYz4VAbSITshd-94" value="Предоставляется" style="edgeLabel;html=1;align=center;verticalAlign=middle;resizable=0;points=[];" parent="f279X57gYz4VAbSITshd-72" vertex="1" connectable="0">
          <mxGeometry x="0.152" y="-3" relative="1" as="geometry">
            <mxPoint as="offset" />
          </mxGeometry>
        </mxCell>
        <mxCell id="f279X57gYz4VAbSITshd-73" value="" style="edgeStyle=orthogonalEdgeStyle;fontSize=12;html=1;endArrow=ERoneToMany;rounded=0;exitX=0.25;exitY=1;exitDx=0;exitDy=0;entryX=1;entryY=0.5;entryDx=0;entryDy=0;" parent="1" source="f279X57gYz4VAbSITshd-34" target="f279X57gYz4VAbSITshd-6" edge="1">
          <mxGeometry width="100" height="100" relative="1" as="geometry">
            <mxPoint x="410" y="410" as="sourcePoint" />
            <mxPoint x="510" y="310" as="targetPoint" />
          </mxGeometry>
        </mxCell>
        <mxCell id="f279X57gYz4VAbSITshd-95" value="Имеет" style="edgeLabel;html=1;align=center;verticalAlign=middle;resizable=0;points=[];" parent="f279X57gYz4VAbSITshd-73" vertex="1" connectable="0">
          <mxGeometry x="0.2103" y="3" relative="1" as="geometry">
            <mxPoint as="offset" />
          </mxGeometry>
        </mxCell>
        <mxCell id="f279X57gYz4VAbSITshd-77" value="" style="edgeStyle=orthogonalEdgeStyle;fontSize=12;html=1;endArrow=ERoneToMany;rounded=0;entryX=1;entryY=0.5;entryDx=0;entryDy=0;exitX=0.75;exitY=1;exitDx=0;exitDy=0;" parent="1" source="f279X57gYz4VAbSITshd-34" target="f279X57gYz4VAbSITshd-8" edge="1">
          <mxGeometry width="100" height="100" relative="1" as="geometry">
            <mxPoint x="580" y="370" as="sourcePoint" />
            <mxPoint x="680" y="270" as="targetPoint" />
            <Array as="points">
              <mxPoint x="710" y="730" />
            </Array>
          </mxGeometry>
        </mxCell>
        <mxCell id="f279X57gYz4VAbSITshd-96" value="Имеет" style="edgeLabel;html=1;align=center;verticalAlign=middle;resizable=0;points=[];" parent="f279X57gYz4VAbSITshd-77" vertex="1" connectable="0">
          <mxGeometry x="0.3041" y="4" relative="1" as="geometry">
            <mxPoint as="offset" />
          </mxGeometry>
        </mxCell>
        <mxCell id="f279X57gYz4VAbSITshd-97" value="Аренды" style="rounded=0;whiteSpace=wrap;html=1;" parent="1" vertex="1">
          <mxGeometry x="330" y="620" width="120" height="60" as="geometry" />
        </mxCell>
        <mxCell id="f279X57gYz4VAbSITshd-98" value="" style="edgeStyle=orthogonalEdgeStyle;fontSize=12;html=1;endArrow=ERoneToMany;rounded=0;exitX=1;exitY=0.75;exitDx=0;exitDy=0;" parent="1" source="f279X57gYz4VAbSITshd-6" edge="1">
          <mxGeometry width="100" height="100" relative="1" as="geometry">
            <mxPoint x="320" y="581" as="sourcePoint" />
            <mxPoint x="390" y="610" as="targetPoint" />
            <Array as="points">
              <mxPoint x="320" y="575" />
              <mxPoint x="320" y="586" />
              <mxPoint x="390" y="586" />
            </Array>
          </mxGeometry>
        </mxCell>
        <mxCell id="f279X57gYz4VAbSITshd-99" value="Переходит в" style="edgeLabel;html=1;align=center;verticalAlign=middle;resizable=0;points=[];" parent="f279X57gYz4VAbSITshd-98" vertex="1" connectable="0">
          <mxGeometry x="0.2103" y="3" relative="1" as="geometry">
            <mxPoint as="offset" />
          </mxGeometry>
        </mxCell>
        <mxCell id="f279X57gYz4VAbSITshd-100" value="" style="edgeStyle=orthogonalEdgeStyle;fontSize=12;html=1;endArrow=ERoneToMany;rounded=0;exitX=0.5;exitY=1;exitDx=0;exitDy=0;entryX=1;entryY=0.5;entryDx=0;entryDy=0;" parent="1" source="f279X57gYz4VAbSITshd-34" target="f279X57gYz4VAbSITshd-97" edge="1">
          <mxGeometry width="100" height="100" relative="1" as="geometry">
            <mxPoint x="845" y="465" as="sourcePoint" />
            <mxPoint x="455" y="655" as="targetPoint" />
          </mxGeometry>
        </mxCell>
        <mxCell id="f279X57gYz4VAbSITshd-101" value="Имеет" style="edgeLabel;html=1;align=center;verticalAlign=middle;resizable=0;points=[];" parent="f279X57gYz4VAbSITshd-100" vertex="1" connectable="0">
          <mxGeometry x="0.2103" y="3" relative="1" as="geometry">
            <mxPoint as="offset" />
          </mxGeometry>
        </mxCell>
        <mxCell id="K97woFC5l51WsHAk6KWZ-3" value="" style="edgeStyle=orthogonalEdgeStyle;fontSize=12;html=1;endArrow=ERoneToMany;rounded=0;exitX=0.5;exitY=0;exitDx=0;exitDy=0;entryX=0.5;entryY=1;entryDx=0;entryDy=0;" parent="1" source="f279X57gYz4VAbSITshd-8" target="f279X57gYz4VAbSITshd-6" edge="1">
          <mxGeometry width="100" height="100" relative="1" as="geometry">
            <mxPoint x="-110" y="710" as="sourcePoint" />
            <mxPoint x="-10" y="610" as="targetPoint" />
          </mxGeometry>
        </mxCell>
        <mxCell id="K97woFC5l51WsHAk6KWZ-4" value="Оплачивают" style="edgeLabel;html=1;align=center;verticalAlign=middle;resizable=0;points=[];" parent="K97woFC5l51WsHAk6KWZ-3" vertex="1" connectable="0">
          <mxGeometry x="-0.1636" y="-2" relative="1" as="geometry">
            <mxPoint as="offset" />
          </mxGeometry>
        </mxCell>
        <mxCell id="XZrUcp6zyZVhjhxhA8r2-1" value="Фотографии инвентаря" style="rounded=0;whiteSpace=wrap;html=1;" parent="1" vertex="1">
          <mxGeometry x="-80" y="480" width="120" height="60" as="geometry" />
        </mxCell>
        <mxCell id="XZrUcp6zyZVhjhxhA8r2-3" value="" style="edgeStyle=orthogonalEdgeStyle;fontSize=12;html=1;endArrow=ERoneToMany;rounded=0;exitX=0.5;exitY=1;exitDx=0;exitDy=0;entryX=0.75;entryY=0;entryDx=0;entryDy=0;" parent="1" source="f279X57gYz4VAbSITshd-4" target="XZrUcp6zyZVhjhxhA8r2-1" edge="1">
          <mxGeometry width="100" height="100" relative="1" as="geometry">
            <mxPoint x="210" y="420" as="sourcePoint" />
            <mxPoint x="70" y="455" as="targetPoint" />
          </mxGeometry>
        </mxCell>
        <mxCell id="XZrUcp6zyZVhjhxhA8r2-4" value="Связано" style="edgeLabel;html=1;align=center;verticalAlign=middle;resizable=0;points=[];" parent="XZrUcp6zyZVhjhxhA8r2-3" vertex="1" connectable="0">
          <mxGeometry x="-0.4044" y="2" relative="1" as="geometry">
            <mxPoint as="offset" />
          </mxGeometry>
        </mxCell>
        <mxCell id="YxnTCs_Ewc4cEOZw_KA9-1" value="" style="edgeStyle=orthogonalEdgeStyle;fontSize=12;html=1;endArrow=ERoneToMany;rounded=0;exitX=0.325;exitY=-0.017;exitDx=0;exitDy=0;entryX=0.825;entryY=-0.033;entryDx=0;entryDy=0;entryPerimeter=0;exitPerimeter=0;" parent="1" source="f279X57gYz4VAbSITshd-34" target="f279X57gYz4VAbSITshd-4" edge="1">
          <mxGeometry width="100" height="100" relative="1" as="geometry">
            <mxPoint x="590" y="330" as="sourcePoint" />
            <mxPoint x="400" y="330" as="targetPoint" />
            <Array as="points">
              <mxPoint x="659" y="300" />
              <mxPoint x="660" y="300" />
              <mxPoint x="660" y="290" />
              <mxPoint x="189" y="290" />
            </Array>
          </mxGeometry>
        </mxCell>
        <mxCell id="YxnTCs_Ewc4cEOZw_KA9-2" value="Имеет" style="edgeLabel;html=1;align=center;verticalAlign=middle;resizable=0;points=[];" parent="YxnTCs_Ewc4cEOZw_KA9-1" vertex="1" connectable="0">
          <mxGeometry x="0.0737" y="2" relative="1" as="geometry">
            <mxPoint as="offset" />
          </mxGeometry>
        </mxCell>
      </root>
    </mxGraphModel>
  </diagram>
</mxfile>
